<svg width="501" height="501" viewBox="0 0 501 501" fill="none" xmlns="http://www.w3.org/2000/svg">
<g clip-path="url(#clip0_3_39)">
<path d="M495.996 366.75C493.794 365.414 441.331 333.898 375.751 333.898C368.998 333.898 362.296 334.166 355.669 334.572C371.058 326.212 386.563 316.528 400.908 305.319C470.177 251.204 499.288 163.288 500.49 159.575C501.601 156.138 500.867 152.365 498.533 149.6C496.189 146.857 492.642 145.582 489.023 146.02C486.026 146.469 415.002 157.637 349.993 216.761C332.424 232.743 316.519 250.49 302.543 267.925C308.741 243.736 313.125 216.6 313.125 187.684C313.125 87.6613 261.427 7.7518 259.225 4.40626C255.372 -1.46875 245.628 -1.46875 241.776 4.40626C239.573 7.7518 187.875 87.6613 187.875 187.684C187.875 216.601 192.259 243.736 198.457 267.926C184.481 250.491 168.577 232.743 151.007 216.762C85.9969 157.637 14.9733 146.469 11.9771 146.021C8.42015 145.583 4.82215 146.858 2.46686 149.601C0.133098 152.366 -0.600788 156.139 0.509827 159.576C1.71242 163.289 30.8233 251.205 100.094 305.321C114.439 316.53 129.944 326.213 145.333 334.574C138.706 334.167 132.004 333.9 125.251 333.9C59.6699 333.9 7.20777 365.415 5.00611 366.752C1.8866 368.659 -0.00878615 372.055 0.000999008 375.706C0.0107842 379.368 1.93748 382.753 5.06677 384.63C7.29877 385.966 60.4752 417.45 125.251 417.45C139.7 417.45 153.939 415.374 167.467 412.221C145.325 438.315 146.067 468.616 146.136 470.119C146.279 473.332 147.89 476.31 150.509 478.176C152.293 479.451 154.414 480.114 156.564 480.114C157.564 480.114 158.563 479.971 159.541 479.685C161.111 479.216 198.458 467.823 227.079 434.727C232.211 428.795 236.347 422.915 240.065 417.144V490.557C240.065 496.33 244.734 501.001 250.503 501.001C256.272 501.001 260.941 496.33 260.941 490.557V417.144C264.658 422.915 268.795 428.795 273.927 434.727C302.548 467.823 339.895 479.215 341.465 479.685C342.443 479.971 343.442 480.114 344.441 480.114C346.592 480.114 348.713 479.451 350.496 478.176C353.116 476.31 354.727 473.332 354.869 470.119C354.938 468.615 355.688 438.237 333.461 412.121C347.063 415.332 361.345 417.45 375.754 417.45C441.335 417.45 493.797 385.935 495.999 384.599C499.108 382.701 501.004 379.316 501.004 375.675C501 372.033 499.105 368.646 495.996 366.75Z" fill="#127910"/>
</g>
<defs>
<clipPath id="clip0_3_39">
<rect width="501" height="501" fill="white"/>
</clipPath>
</defs>
</svg>
